<svg xmlns="http://www.w3.org/2000/svg" id="SvgjsSvg139473" width="4096" height="1768.5239468612906" version="1.1" xmlns:xlink="http://www.w3.org/1999/xlink" xmlns:svgjs="http://svgjs.com/svgjs"><defs id="SvgjsDefs139474"></defs><g id="SvgjsG139475" transform="translate(328, 328) scale(34.400000000000006)" opacity="1"><defs id="SvgjsDefs33040"></defs><g id="SvgjsG33041" transform="scale(0.14540167211922936)" opacity="1"><g id="SvgjsG33042" class="qe9cX3iGF" transform="translate(227.37678873835733, -63.592125317527504) scale(2.3293818797629124)" light-content="false" non-strokable="false" fill="#404040"><path d="M93 46.9L74.7 28.6c-.8-.8-1.9-1.3-3.1-1.3-1.2 0-2.3.5-3.1 1.3l-7.7 7.7-7.7-7.7c-.8-.8-1.9-1.3-3.1-1.3-1.2 0-2.3.5-3.1 1.3l-7.7 7.7-7.7-7.7c-.8-.8-1.9-1.3-3.1-1.3s-2.3.5-3.1 1.3L7 46.9c-1.7 1.7-1.7 4.5 0 6.2l18.3 18.3c.8.8 1.9 1.3 3.1 1.3s2.3-.5 3.1-1.3l7.7-7.7 7.7 7.7c.8.8 1.9 1.3 3.1 1.3 1.2 0 2.3-.5 3.1-1.3l7.7-7.7 7.7 7.7c.8.8 1.9 1.3 3.1 1.3 1.2 0 2.3-.5 3.1-1.3L93 53.1c.8-.8 1.3-1.9 1.3-3.1s-.5-2.3-1.3-3.1zM60.8 60.8l-9.1-9.1c-.4-.4-.7-1-.7-1.7s.2-1.2.7-1.7l9.1-9.1 9.1 9.1c.9.9.9 2.4 0 3.3l-9.1 9.2zM48.3 48.3c.4.4.7 1 .7 1.7s-.2 1.2-.7 1.7l-9.1 9.1-9.2-9.1c-.9-.9-.9-2.4 0-3.3l9.1-9.1 9.2 9z"></path></g><rect id="SvgjsRect33043" width="687.75" height="2" fill="#404040" transform="translate(0, 118.25393734123624) scale(1)" light-content="false"></rect><g id="SvgjsG33044" class="text" transform="translate(342.76, 173.74393734123623) scale(1)" light-content="false" fill="#404040"><path d="M-302.86 -11.1C-302.86 -12.63 -303.06 -14 -303.47 -15.22C-303.88 -16.44 -304.53 -17.49 -305.41 -18.37C-306.28 -19.25 -307.42 -19.95 -308.8 -20.48C-310.19 -21.01 -311.86 -21.34 -313.81 -21.47C-312.45 -21.73 -311.26 -22.08 -310.24 -22.51C-309.22 -22.95 -308.39 -23.52 -307.73 -24.2C-307.08 -24.88 -306.59 -25.7 -306.27 -26.66C-305.95 -27.62 -305.79 -28.75 -305.79 -30.06C-305.79 -31.52 -305.98 -32.79 -306.36 -33.87C-306.74 -34.94 -307.27 -35.86 -307.94 -36.62C-308.61 -37.38 -309.4 -38 -310.31 -38.47C-311.22 -38.94 -312.21 -39.3 -313.27 -39.57C-314.34 -39.83 -315.44 -40.01 -316.6 -40.11C-317.75 -40.21 -318.9 -40.25 -320.05 -40.25L-342.76 -40.25L-342.76 0L-319.53 0C-318.02 0 -316.57 -0.06 -315.16 -0.18C-313.75 -0.29 -312.44 -0.5 -311.21 -0.81C-309.98 -1.11 -308.85 -1.52 -307.82 -2.04C-306.8 -2.55 -305.92 -3.23 -305.19 -4.06C-304.45 -4.89 -303.88 -5.88 -303.47 -7.03C-303.06 -8.18 -302.86 -9.54 -302.86 -11.1ZM-309.21 -30C-309.21 -29.04 -309.35 -28.13 -309.61 -27.28C-309.87 -26.42 -310.43 -25.66 -311.28 -25.02C-312.13 -24.37 -313.34 -23.86 -314.93 -23.48C-316.51 -23.1 -318.62 -22.91 -321.25 -22.91L-339.1 -22.91L-339.1 -36.97L-321.25 -36.97C-319.4 -36.97 -317.81 -36.88 -316.49 -36.69C-315.18 -36.51 -314.07 -36.25 -313.17 -35.93C-312.27 -35.61 -311.56 -35.22 -311.04 -34.78C-310.53 -34.33 -310.13 -33.84 -309.86 -33.33C-309.58 -32.81 -309.41 -32.27 -309.33 -31.7C-309.25 -31.13 -309.21 -30.57 -309.21 -30ZM-306.69 -11.16C-306.69 -9.76 -306.91 -8.55 -307.35 -7.56C-307.79 -6.56 -308.53 -5.75 -309.55 -5.11C-310.58 -4.48 -311.92 -4.02 -313.59 -3.74C-315.26 -3.45 -317.32 -3.31 -319.76 -3.31L-339.1 -3.31L-339.1 -19.69L-320.26 -19.69C-317.9 -19.69 -315.85 -19.53 -314.14 -19.2C-312.42 -18.88 -311.01 -18.38 -309.92 -17.7C-308.82 -17.01 -308.01 -16.13 -307.49 -15.06C-306.96 -13.98 -306.69 -12.69 -306.69 -11.16Z M-244.23 -20.1C-244.23 -23.71 -244.89 -26.83 -246.2 -29.46C-247.5 -32.08 -249.3 -34.25 -251.59 -35.96C-253.87 -37.67 -256.57 -38.94 -259.67 -39.76C-262.78 -40.58 -266.13 -40.99 -269.72 -40.99C-272.12 -40.99 -274.42 -40.81 -276.61 -40.44C-278.79 -40.08 -280.84 -39.53 -282.74 -38.77C-284.65 -38.02 -286.38 -37.08 -287.93 -35.95C-289.48 -34.81 -290.81 -33.47 -291.9 -31.92C-292.99 -30.37 -293.84 -28.61 -294.45 -26.65C-295.05 -24.68 -295.36 -22.5 -295.36 -20.1C-295.36 -16.48 -294.7 -13.36 -293.39 -10.74C-292.08 -8.11 -290.28 -5.94 -287.97 -4.23C-285.67 -2.52 -282.95 -1.26 -279.83 -0.44C-276.7 0.38 -273.33 0.79 -269.72 0.79C-266.13 0.79 -262.78 0.38 -259.67 -0.44C-256.57 -1.26 -253.87 -2.52 -251.59 -4.23C-249.3 -5.94 -247.5 -8.11 -246.2 -10.74C-244.89 -13.36 -244.23 -16.48 -244.23 -20.1ZM-248.01 -20.1C-248.01 -17.25 -248.48 -14.73 -249.4 -12.54C-250.33 -10.35 -251.7 -8.51 -253.52 -7.02C-255.34 -5.52 -257.6 -4.39 -260.3 -3.62C-263.01 -2.85 -266.15 -2.46 -269.72 -2.46C-273.3 -2.46 -276.45 -2.85 -279.17 -3.62C-281.89 -4.39 -284.17 -5.52 -286.01 -7.02C-287.85 -8.51 -289.23 -10.35 -290.17 -12.54C-291.11 -14.73 -291.58 -17.25 -291.58 -20.1C-291.58 -22.91 -291.11 -25.42 -290.17 -27.61C-289.23 -29.81 -287.85 -31.66 -286.01 -33.15C-284.17 -34.64 -281.89 -35.78 -279.17 -36.56C-276.45 -37.34 -273.3 -37.73 -269.72 -37.73C-266.15 -37.73 -263.01 -37.35 -260.3 -36.58C-257.6 -35.81 -255.34 -34.67 -253.52 -33.18C-251.7 -31.68 -250.33 -29.84 -249.4 -27.66C-248.48 -25.47 -248.01 -22.95 -248.01 -20.1Z M-189.57 -20.16C-189.57 -24 -190.16 -27.22 -191.34 -29.79C-192.52 -32.37 -194.15 -34.44 -196.23 -35.99C-198.31 -37.54 -200.77 -38.64 -203.6 -39.29C-206.43 -39.93 -209.5 -40.25 -212.8 -40.25L-233.51 -40.25L-233.51 0L-212.74 0C-210.53 0 -208.43 -0.14 -206.43 -0.42C-204.42 -0.71 -202.57 -1.16 -200.86 -1.79C-199.15 -2.41 -197.6 -3.24 -196.2 -4.28C-194.8 -5.31 -193.62 -6.57 -192.64 -8.06C-191.67 -9.54 -190.91 -11.28 -190.37 -13.29C-189.83 -15.29 -189.57 -17.58 -189.57 -20.16ZM-193.34 -20.16C-193.34 -16.87 -193.82 -14.16 -194.78 -12C-195.74 -9.84 -197.07 -8.12 -198.78 -6.84C-200.49 -5.56 -202.53 -4.66 -204.92 -4.15C-207.3 -3.63 -209.93 -3.37 -212.8 -3.37L-229.85 -3.37L-229.85 -36.91L-212.8 -36.91C-210.88 -36.91 -209.08 -36.81 -207.38 -36.59C-205.68 -36.38 -204.11 -36.01 -202.66 -35.49C-201.22 -34.98 -199.92 -34.3 -198.76 -33.46C-197.61 -32.62 -196.64 -31.58 -195.83 -30.34C-195.03 -29.1 -194.42 -27.64 -193.99 -25.96C-193.56 -24.28 -193.34 -22.34 -193.34 -20.16Z M-142.05 0L-138.03 0L-159.1 -40.25L-163.4 -40.25L-184.47 0L-180.45 0L-174.92 -10.61L-147.58 -10.61ZM-161.24 -36.71L-149.37 -13.97L-173.13 -13.97Z M-91.48 0L-87.5 0L-87.5 -40.25L-91.1 -40.25L-91.1 -4.69L-126.08 -40.25L-130.12 -40.25L-130.12 0L-126.46 0L-126.46 -35.45Z M-8.77 -19.01L-12.32 -19.01C-12.51 -16.96 -13.08 -14.97 -14 -13.02C-14.93 -11.08 -16.27 -9.34 -18.03 -7.79C-22.33 -10.68 -26.02 -13.27 -29.09 -15.54C-32.17 -17.82 -34.74 -19.87 -36.81 -21.71C-35 -22.59 -33.2 -23.47 -31.42 -24.35C-29.64 -25.22 -28.05 -26.15 -26.65 -27.11C-25.24 -28.08 -24.1 -29.11 -23.23 -30.21C-22.36 -31.3 -21.93 -32.51 -21.93 -33.84C-21.93 -34.91 -22.23 -35.89 -22.84 -36.78C-23.44 -37.67 -24.27 -38.42 -25.33 -39.04C-26.38 -39.65 -27.62 -40.13 -29.03 -40.47C-30.45 -40.82 -31.98 -40.99 -33.62 -40.99C-35.51 -40.99 -37.29 -40.81 -38.96 -40.44C-40.63 -40.08 -42.09 -39.53 -43.33 -38.79C-44.57 -38.05 -45.55 -37.12 -46.27 -36.01C-47 -34.89 -47.36 -33.59 -47.36 -32.11C-47.36 -30.63 -46.93 -29.1 -46.08 -27.54C-45.23 -25.98 -43.92 -24.28 -42.14 -22.44C-43.67 -21.68 -45.12 -20.86 -46.49 -20C-47.87 -19.13 -49.08 -18.19 -50.13 -17.2C-51.17 -16.2 -52 -15.13 -52.62 -13.97C-53.23 -12.82 -53.54 -11.58 -53.54 -10.25C-53.54 -8.34 -53.04 -6.68 -52.05 -5.29C-51.05 -3.89 -49.72 -2.74 -48.05 -1.85C-46.38 -0.95 -44.45 -0.28 -42.28 0.15C-40.1 0.58 -37.84 0.79 -35.49 0.79C-31.72 0.79 -28.38 0.34 -25.46 -0.56C-22.54 -1.46 -20.04 -2.63 -17.97 -4.07C-16.94 -3.41 -15.91 -2.73 -14.88 -2.05C-13.86 -1.37 -12.77 -0.68 -11.62 0L-6.25 0C-7.39 -0.72 -8.38 -1.36 -9.24 -1.92C-10.1 -2.48 -10.88 -2.98 -11.59 -3.44C-12.29 -3.9 -12.95 -4.34 -13.56 -4.75C-14.18 -5.16 -14.79 -5.58 -15.4 -6.01C-13.4 -7.84 -11.87 -9.89 -10.78 -12.16C-9.7 -14.42 -9.03 -16.71 -8.77 -19.01ZM-34.82 -2.29C-37.5 -2.29 -39.79 -2.51 -41.69 -2.96C-43.59 -3.41 -45.16 -4 -46.38 -4.75C-47.6 -5.49 -48.5 -6.34 -49.07 -7.29C-49.65 -8.25 -49.94 -9.24 -49.94 -10.25C-49.94 -11.07 -49.77 -11.85 -49.44 -12.58C-49.11 -13.32 -48.67 -14 -48.12 -14.65C-47.57 -15.29 -46.95 -15.89 -46.25 -16.44C-45.54 -16.98 -44.82 -17.49 -44.08 -17.94C-43.33 -18.4 -42.6 -18.82 -41.88 -19.2C-41.16 -19.58 -40.5 -19.92 -39.92 -20.21C-37.69 -18.14 -34.98 -15.94 -31.79 -13.59C-28.59 -11.25 -24.87 -8.68 -20.61 -5.89C-22.39 -4.78 -24.46 -3.9 -26.82 -3.25C-29.18 -2.61 -31.85 -2.29 -34.82 -2.29ZM-43.75 -32.11C-43.75 -33.12 -43.5 -34 -42.99 -34.73C-42.49 -35.46 -41.77 -36.06 -40.85 -36.53C-39.94 -37 -38.85 -37.35 -37.59 -37.57C-36.33 -37.8 -34.95 -37.91 -33.44 -37.91C-31.92 -37.91 -30.65 -37.78 -29.63 -37.53C-28.62 -37.28 -27.81 -36.94 -27.2 -36.53C-26.6 -36.12 -26.17 -35.66 -25.91 -35.14C-25.66 -34.62 -25.53 -34.11 -25.53 -33.6C-25.53 -32.67 -25.91 -31.78 -26.67 -30.95C-27.44 -30.12 -28.45 -29.32 -29.71 -28.54C-30.97 -27.75 -32.41 -26.99 -34.03 -26.24C-35.65 -25.48 -37.32 -24.7 -39.04 -23.88C-40.68 -25.54 -41.87 -27.02 -42.63 -28.33C-43.38 -29.64 -43.75 -30.9 -43.75 -32.11Z M66.49 0L70.15 0L70.15 -40.25L66.49 -40.25L66.49 -22.91L30.42 -22.91L30.42 -40.25L26.76 -40.25L26.76 0L30.42 0L30.42 -19.51L66.49 -19.51Z M132.03 -20.1C132.03 -23.71 131.37 -26.83 130.06 -29.46C128.75 -32.08 126.96 -34.25 124.67 -35.96C122.39 -37.67 119.69 -38.94 116.59 -39.76C113.48 -40.58 110.13 -40.99 106.54 -40.99C104.14 -40.99 101.84 -40.81 99.65 -40.44C97.47 -40.08 95.42 -39.53 93.52 -38.77C91.61 -38.02 89.88 -37.08 88.33 -35.95C86.78 -34.81 85.45 -33.47 84.36 -31.92C83.27 -30.37 82.42 -28.61 81.81 -26.65C81.21 -24.68 80.9 -22.5 80.9 -20.1C80.9 -16.48 81.56 -13.36 82.87 -10.74C84.17 -8.11 85.98 -5.94 88.29 -4.23C90.59 -2.52 93.31 -1.26 96.43 -0.44C99.56 0.38 102.92 0.79 106.54 0.79C110.13 0.79 113.48 0.38 116.59 -0.44C119.69 -1.26 122.39 -2.52 124.67 -4.23C126.96 -5.94 128.75 -8.11 130.06 -10.74C131.37 -13.36 132.03 -16.48 132.03 -20.1ZM128.25 -20.1C128.25 -17.25 127.78 -14.73 126.86 -12.54C125.93 -10.35 124.56 -8.51 122.74 -7.02C120.92 -5.52 118.66 -4.39 115.96 -3.62C113.25 -2.85 110.11 -2.46 106.54 -2.46C102.96 -2.46 99.81 -2.85 97.09 -3.62C94.37 -4.39 92.08 -5.52 90.25 -7.02C88.41 -8.51 87.03 -10.35 86.09 -12.54C85.15 -14.73 84.68 -17.25 84.68 -20.1C84.68 -22.91 85.15 -25.42 86.09 -27.61C87.03 -29.81 88.41 -31.66 90.25 -33.15C92.08 -34.64 94.37 -35.78 97.09 -36.56C99.81 -37.34 102.96 -37.73 106.54 -37.73C110.11 -37.73 113.25 -37.35 115.96 -36.58C118.66 -35.81 120.92 -34.67 122.74 -33.18C124.56 -31.68 125.93 -29.84 126.86 -27.66C127.78 -25.47 128.25 -22.95 128.25 -20.1Z M193.93 0L197.53 0L197.53 -40.25L193.64 -40.25L170.29 -3.78L146.67 -40.25L142.75 -40.25L142.75 0L146.41 0L146.41 -34.39L168.56 0L171.81 0L193.93 -34.25Z M255.04 -20.16C255.04 -24 254.45 -27.22 253.27 -29.79C252.09 -32.37 250.46 -34.44 248.38 -35.99C246.3 -37.54 243.84 -38.64 241.01 -39.29C238.18 -39.93 235.11 -40.25 231.81 -40.25L211.1 -40.25L211.1 0L231.87 0C234.08 0 236.18 -0.14 238.18 -0.42C240.19 -0.71 242.04 -1.16 243.75 -1.79C245.46 -2.41 247.01 -3.24 248.41 -4.28C249.8 -5.31 250.99 -6.57 251.97 -8.06C252.94 -9.54 253.7 -11.28 254.24 -13.29C254.78 -15.29 255.04 -17.58 255.04 -20.16ZM251.26 -20.16C251.26 -16.87 250.79 -14.16 249.83 -12C248.87 -9.84 247.54 -8.12 245.83 -6.84C244.12 -5.56 242.08 -4.66 239.69 -4.15C237.31 -3.63 234.68 -3.37 231.81 -3.37L214.76 -3.37L214.76 -36.91L231.81 -36.91C233.73 -36.91 235.53 -36.81 237.23 -36.59C238.93 -36.38 240.5 -36.01 241.95 -35.49C243.39 -34.98 244.69 -34.3 245.84 -33.46C247 -32.62 247.97 -31.58 248.77 -30.34C249.58 -29.1 250.19 -27.64 250.62 -25.96C251.05 -24.28 251.26 -22.34 251.26 -20.16Z M265.71 0L299.69 0L299.69 -3.43L269.69 -3.43L269.69 -19.57L297.76 -19.57L297.76 -22.97L269.69 -22.97L269.69 -36.83L299.25 -36.83L299.25 -40.25L265.71 -40.25Z M311 0L344.99 0L344.99 -3.43L314.99 -3.43L314.99 -19.57L343.05 -19.57L343.05 -22.97L314.99 -22.97L314.99 -36.83L344.55 -36.83L344.55 -40.25L311 -40.25Z"></path></g><rect id="SvgjsRect33045" width="687.75" height="2" fill="#404040" transform="translate(0, 187.03393734123622) scale(1)" light-content="false"></rect><g id="SvgjsG33046" class="text" transform="translate(344.12, 222.02393734123623) scale(1)" light-content="false" fill="#404040"><path d="M-94.19 -1.6L-94.19 -1.6L-94.19 -3.78C-94.71 -3.44 -95.28 -3.11 -95.91 -2.81C-96.54 -2.5 -97.23 -2.23 -97.98 -1.99C-98.72 -1.76 -99.52 -1.57 -100.38 -1.44C-101.23 -1.3 -102.14 -1.23 -103.1 -1.23C-105.03 -1.23 -106.7 -1.44 -108.12 -1.85C-109.54 -2.27 -110.71 -2.86 -111.63 -3.63C-112.55 -4.39 -113.23 -5.32 -113.68 -6.4C-114.12 -7.49 -114.35 -8.7 -114.35 -10.05C-114.35 -11.4 -114.12 -12.61 -113.68 -13.7C-113.23 -14.79 -112.55 -15.72 -111.63 -16.49C-110.71 -17.25 -109.54 -17.85 -108.12 -18.27C-106.7 -18.69 -105.03 -18.9 -103.1 -18.9C-102.14 -18.9 -101.24 -18.83 -100.4 -18.69C-99.56 -18.55 -98.77 -18.37 -98.03 -18.13C-97.3 -17.9 -96.61 -17.63 -95.98 -17.31C-95.34 -17 -94.75 -16.67 -94.19 -16.32L-94.19 -18.52C-94.89 -18.81 -95.59 -19.07 -96.28 -19.31C-96.97 -19.55 -97.68 -19.76 -98.42 -19.94C-99.17 -20.11 -99.95 -20.25 -100.77 -20.35C-101.59 -20.44 -102.48 -20.49 -103.45 -20.49C-104.65 -20.49 -105.8 -20.4 -106.89 -20.2C-107.98 -20 -109 -19.71 -109.95 -19.32C-110.9 -18.93 -111.76 -18.44 -112.53 -17.86C-113.3 -17.28 -113.96 -16.61 -114.51 -15.83C-115.07 -15.06 -115.49 -14.19 -115.79 -13.23C-116.09 -12.26 -116.24 -11.2 -116.24 -10.05C-116.24 -8.9 -116.09 -7.84 -115.79 -6.87C-115.49 -5.9 -115.07 -5.03 -114.51 -4.26C-113.96 -3.49 -113.3 -2.81 -112.53 -2.23C-111.76 -1.65 -110.9 -1.17 -109.95 -0.78C-109 -0.39 -107.98 -0.09 -106.88 0.1C-105.78 0.3 -104.64 0.4 -103.45 0.4C-102.48 0.4 -101.59 0.35 -100.77 0.25C-99.95 0.15 -99.17 0.01 -98.42 -0.16C-97.68 -0.34 -96.97 -0.55 -96.28 -0.79C-95.59 -1.04 -94.89 -1.3 -94.19 -1.6Z M-64.6 -10.05C-64.6 -11.86 -64.93 -13.42 -65.58 -14.73C-66.24 -16.04 -67.13 -17.13 -68.28 -17.98C-69.42 -18.84 -70.77 -19.47 -72.32 -19.88C-73.87 -20.29 -75.55 -20.49 -77.34 -20.49C-78.54 -20.49 -79.69 -20.4 -80.79 -20.22C-81.88 -20.04 -82.9 -19.76 -83.85 -19.39C-84.81 -19.01 -85.67 -18.54 -86.45 -17.97C-87.22 -17.41 -87.89 -16.74 -88.43 -15.96C-88.98 -15.18 -89.4 -14.3 -89.71 -13.32C-90.01 -12.34 -90.16 -11.25 -90.16 -10.05C-90.16 -8.24 -89.83 -6.68 -89.18 -5.37C-88.53 -4.06 -87.62 -2.97 -86.47 -2.12C-85.32 -1.26 -83.96 -0.63 -82.4 -0.22C-80.83 0.19 -79.15 0.4 -77.34 0.4C-75.55 0.4 -73.87 0.19 -72.32 -0.22C-70.77 -0.63 -69.42 -1.26 -68.28 -2.12C-67.13 -2.97 -66.24 -4.06 -65.58 -5.37C-64.93 -6.68 -64.6 -8.24 -64.6 -10.05ZM-66.49 -10.05C-66.49 -8.62 -66.72 -7.36 -67.19 -6.27C-67.65 -5.18 -68.33 -4.26 -69.24 -3.51C-70.15 -2.76 -71.28 -2.19 -72.63 -1.81C-73.99 -1.42 -75.56 -1.23 -77.34 -1.23C-79.13 -1.23 -80.71 -1.42 -82.07 -1.81C-83.43 -2.19 -84.57 -2.76 -85.49 -3.51C-86.41 -4.26 -87.1 -5.18 -87.57 -6.27C-88.04 -7.36 -88.27 -8.62 -88.27 -10.05C-88.27 -11.46 -88.04 -12.71 -87.57 -13.81C-87.1 -14.9 -86.41 -15.83 -85.49 -16.57C-84.57 -17.32 -83.43 -17.89 -82.07 -18.28C-80.71 -18.67 -79.13 -18.87 -77.34 -18.87C-75.56 -18.87 -73.99 -18.67 -72.63 -18.29C-71.28 -17.9 -70.15 -17.34 -69.24 -16.59C-68.33 -15.84 -67.65 -14.92 -67.19 -13.83C-66.72 -12.73 -66.49 -11.47 -66.49 -10.05Z M-39.92 0L-37.92 0L-37.92 -20.13L-39.73 -20.13L-39.73 -2.34L-57.22 -20.13L-59.24 -20.13L-59.24 0L-57.41 0L-57.41 -17.72Z M-14.9 -17.15L-14.9 -19.26C-15.53 -19.43 -16.16 -19.58 -16.78 -19.73C-17.4 -19.88 -18.03 -20.01 -18.68 -20.12C-19.33 -20.23 -20.01 -20.32 -20.71 -20.39C-21.4 -20.46 -22.14 -20.49 -22.92 -20.49C-23.64 -20.49 -24.36 -20.46 -25.09 -20.39C-25.83 -20.32 -26.53 -20.21 -27.21 -20.06C-27.89 -19.91 -28.53 -19.7 -29.12 -19.45C-29.72 -19.19 -30.24 -18.87 -30.68 -18.49C-31.13 -18.11 -31.47 -17.65 -31.73 -17.13C-31.98 -16.61 -32.11 -16.01 -32.11 -15.34C-32.11 -14.65 -31.95 -14.05 -31.63 -13.54C-31.32 -13.02 -30.89 -12.56 -30.34 -12.17C-29.8 -11.77 -29.17 -11.43 -28.44 -11.13C-27.71 -10.84 -26.94 -10.58 -26.13 -10.34C-25.32 -10.11 -24.48 -9.89 -23.62 -9.69C-22.76 -9.49 -21.92 -9.28 -21.11 -9.07C-20.3 -8.86 -19.53 -8.64 -18.8 -8.39C-18.07 -8.15 -17.44 -7.87 -16.9 -7.55C-16.35 -7.23 -15.93 -6.87 -15.61 -6.45C-15.29 -6.03 -15.13 -5.54 -15.13 -4.98C-15.13 -4.29 -15.33 -3.7 -15.73 -3.22C-16.12 -2.74 -16.67 -2.36 -17.39 -2.06C-18.1 -1.76 -18.95 -1.54 -19.92 -1.41C-20.9 -1.27 -21.96 -1.2 -23.12 -1.2C-24.75 -1.2 -26.3 -1.35 -27.78 -1.64C-29.26 -1.93 -30.66 -2.48 -31.99 -3.27L-31.99 -1.03C-30.7 -0.59 -29.35 -0.24 -27.93 0.01C-26.51 0.27 -24.92 0.4 -23.17 0.4C-22.41 0.4 -21.64 0.36 -20.85 0.3C-20.07 0.24 -19.3 0.13 -18.57 -0.03C-17.83 -0.19 -17.14 -0.4 -16.49 -0.67C-15.84 -0.94 -15.27 -1.27 -14.79 -1.68C-14.3 -2.08 -13.92 -2.57 -13.64 -3.13C-13.35 -3.69 -13.21 -4.35 -13.21 -5.1C-13.21 -5.79 -13.37 -6.4 -13.69 -6.93C-14.01 -7.46 -14.44 -7.92 -14.98 -8.33C-15.52 -8.75 -16.15 -9.1 -16.88 -9.41C-17.61 -9.72 -18.38 -10 -19.2 -10.25C-20.01 -10.5 -20.85 -10.73 -21.72 -10.94C-22.58 -11.16 -23.42 -11.37 -24.24 -11.58C-25.05 -11.79 -25.82 -12.01 -26.55 -12.25C-27.28 -12.49 -27.91 -12.76 -28.45 -13.05C-29 -13.34 -29.43 -13.68 -29.74 -14.06C-30.06 -14.44 -30.22 -14.89 -30.22 -15.4C-30.22 -16 -30.05 -16.52 -29.71 -16.96C-29.38 -17.4 -28.89 -17.77 -28.25 -18.05C-27.61 -18.34 -26.83 -18.55 -25.91 -18.69C-24.98 -18.83 -23.93 -18.9 -22.75 -18.9C-21.77 -18.9 -20.88 -18.84 -20.08 -18.73C-19.28 -18.62 -18.56 -18.48 -17.92 -18.31C-17.28 -18.14 -16.71 -17.96 -16.22 -17.75C-15.72 -17.54 -15.28 -17.34 -14.9 -17.15Z M12.6 -6.33L12.6 -6.33L12.6 -20.13L10.77 -20.13L10.77 -6.18C10.77 -5.51 10.59 -4.87 10.23 -4.27C9.88 -3.67 9.35 -3.14 8.64 -2.7C7.94 -2.25 7.07 -1.89 6.04 -1.63C5 -1.36 3.8 -1.23 2.45 -1.23C1.08 -1.23 -0.12 -1.36 -1.16 -1.63C-2.19 -1.89 -3.06 -2.25 -3.76 -2.7C-4.47 -3.14 -5 -3.67 -5.35 -4.27C-5.71 -4.87 -5.89 -5.51 -5.89 -6.18L-5.89 -20.13L-7.72 -20.13L-7.72 -6.33C-7.72 -5.32 -7.51 -4.41 -7.08 -3.58C-6.66 -2.76 -6.02 -2.05 -5.17 -1.46C-4.32 -0.87 -3.26 -0.41 -1.99 -0.09C-0.72 0.23 0.76 0.4 2.45 0.4C4.14 0.4 5.62 0.23 6.88 -0.09C8.15 -0.41 9.21 -0.87 10.06 -1.46C10.9 -2.05 11.54 -2.76 11.96 -3.58C12.39 -4.41 12.6 -5.32 12.6 -6.33Z M19.19 0L35.73 0L35.73 -1.71L21.02 -1.71L21.02 -20.13L19.19 -20.13Z M44.49 -18.46L53.64 -18.46L53.64 -20.13L33.52 -20.13L33.52 -18.46L42.67 -18.46L42.67 0L44.49 0Z M57.6 0L59.43 0L59.43 -20.13L57.6 -20.13Z M85.53 0L87.52 0L87.52 -20.13L85.72 -20.13L85.72 -2.34L68.23 -20.13L66.21 -20.13L66.21 0L68.04 0L68.04 -17.72Z M106.14 -20.49C104.91 -20.49 103.73 -20.4 102.6 -20.21C101.46 -20.02 100.41 -19.73 99.43 -19.36C98.44 -18.98 97.55 -18.51 96.75 -17.93C95.94 -17.35 95.25 -16.68 94.68 -15.9C94.11 -15.12 93.67 -14.25 93.35 -13.28C93.04 -12.31 92.89 -11.23 92.89 -10.05C92.89 -8.28 93.22 -6.74 93.9 -5.43C94.57 -4.13 95.5 -3.04 96.69 -2.18C97.87 -1.31 99.28 -0.67 100.9 -0.24C102.52 0.18 104.28 0.4 106.17 0.4C107.1 0.4 107.99 0.36 108.83 0.29C109.68 0.22 110.49 0.12 111.28 -0.01C112.06 -0.14 112.82 -0.3 113.56 -0.5C114.3 -0.69 115.03 -0.92 115.75 -1.17L115.75 -10.02L105.73 -10.02L105.73 -8.31L113.92 -8.31L113.92 -2.2C113.54 -2.08 113.08 -1.97 112.53 -1.85C111.98 -1.74 111.38 -1.64 110.71 -1.55C110.05 -1.45 109.34 -1.38 108.6 -1.32C107.85 -1.26 107.09 -1.23 106.33 -1.23C104.39 -1.23 102.7 -1.45 101.25 -1.89C99.8 -2.33 98.6 -2.94 97.64 -3.72C96.68 -4.5 95.96 -5.43 95.49 -6.51C95.01 -7.59 94.78 -8.77 94.78 -10.05C94.78 -11.42 95.02 -12.65 95.5 -13.74C95.98 -14.83 96.71 -15.76 97.68 -16.52C98.64 -17.29 99.85 -17.87 101.31 -18.28C102.76 -18.69 104.47 -18.9 106.42 -18.9C107.38 -18.9 108.27 -18.83 109.11 -18.69C109.94 -18.55 110.73 -18.37 111.45 -18.13C112.18 -17.9 112.86 -17.63 113.49 -17.31C114.12 -17 114.71 -16.67 115.27 -16.32L115.27 -18.54C114.57 -18.84 113.87 -19.1 113.17 -19.34C112.48 -19.58 111.77 -19.79 111.04 -19.96C110.3 -20.13 109.54 -20.26 108.74 -20.35C107.93 -20.45 107.07 -20.49 106.14 -20.49Z"></path></g></g></g></svg>